<svg xmlns="http://www.w3.org/2000/svg" width="16.295" height="16.295" viewBox="0 0 16.295 16.295">
  <path id="history_FILL0_wght400_GRAD0_opsz48" d="M16.976,17.836,13.491,14.4V9.553h1.358v4.277l3.1,3.033Zm-2.9,4.458a7.738,7.738,0,0,1-5.726-2.388A7.933,7.933,0,0,1,6,14.125H7.358A6.644,6.644,0,0,0,9.3,18.945a6.418,6.418,0,0,0,4.775,1.992,6.582,6.582,0,0,0,4.866-2.014,6.7,6.7,0,0,0,1.992-4.888,6.321,6.321,0,0,0-2.014-4.741A6.741,6.741,0,0,0,14.08,7.358a6.154,6.154,0,0,0-2.886.7A7.87,7.87,0,0,0,8.852,9.915h2.376v1.358H6.5V6.566H7.856v2.4a8.613,8.613,0,0,1,2.8-2.173A7.7,7.7,0,0,1,14.08,6a8.085,8.085,0,0,1,3.191.634,8.362,8.362,0,0,1,2.614,1.731,8.128,8.128,0,0,1,1.765,2.569,7.8,7.8,0,0,1,.645,3.168,7.963,7.963,0,0,1-.645,3.191,8.192,8.192,0,0,1-1.765,2.6,8.424,8.424,0,0,1-2.614,1.754A7.963,7.963,0,0,1,14.08,22.295Z" transform="translate(-6 -6)" fill="#212121"/>
</svg>
