<?xml version="1.0" encoding="UTF-8"?><svg id="b" xmlns="http://www.w3.org/2000/svg" width="273.819" height="42.9" viewBox="0 0 273.819 42.9"><g id="c"><g><g><g><g><path d="M106.106,26.324c-2.742,0-5.26-.573-7.555-1.721l.613-2.275c1.672,.583,2.921,.987,3.748,1.21,.826,.224,1.483,.336,1.969,.336,.602,0,1.113-.17,1.531-.511,.418-.34,.753-.933,1.006-1.779,.253-.846,.433-2.027,.539-3.544s.16-3.451,.16-5.805c0-1.264-.014-2.571-.043-3.923-.029-1.351-.063-2.708-.102-4.069,1.964-.117,3.918-.175,5.863-.175,.019,.272,.029,.696,.029,1.268s.004,1.206,.015,1.896c.009,.691,.015,1.347,.015,1.969,0,3.462-.122,6.31-.365,8.546-.243,2.237-.656,3.977-1.24,5.221-.583,1.245-1.381,2.115-2.392,2.611-1.012,.496-2.275,.744-3.792,.744Z"/><path d="M118.123,26.237c-.02-.642-.039-1.512-.058-2.611-.02-1.099-.034-2.363-.044-3.792-.01-1.429-.02-2.961-.029-4.594-.01-1.634-.015-3.306-.015-5.018,.876,0,1.794,.01,2.756,.029,.963,.02,1.716,.049,2.261,.088,0,1.42-.005,2.907-.015,4.462-.01,1.556-.02,3.068-.029,4.536-.01,1.469-.024,2.796-.044,3.982s-.039,2.12-.058,2.8c-.895,.04-1.75,.068-2.567,.088-.816,.019-1.536,.029-2.159,.029Zm-.117-18.289v-3.938h4.959v3.938h-4.959Z"/><path d="M131.949,26.237c-.836,0-1.692-.015-2.567-.044-.875-.029-1.594-.053-2.159-.073-.02-.447-.034-1.162-.043-2.144-.01-.982-.02-2.134-.029-3.456-.01-1.322-.02-2.727-.029-4.215-.01-1.488-.02-2.98-.029-4.478-.01-1.497-.015-2.917-.015-4.259v-3.471c.447,0,.977,.005,1.59,.014,.613,.01,1.229,.025,1.852,.044,.622,.02,1.147,.039,1.575,.059v6.709c1.167-.817,2.392-1.225,3.675-1.225,1.244,0,2.353,.35,3.325,1.05,.972,.7,1.74,1.658,2.304,2.873,.564,1.216,.846,2.601,.846,4.157,0,1.575-.297,3.01-.89,4.302-.594,1.293-1.39,2.324-2.392,3.092-1.002,.768-2.125,1.152-3.369,1.152-1.148,0-2.353-.34-3.617-1.021-.02,.389-.029,.7-.029,.933Zm2.479-14.147c-.856,0-1.643,.486-2.362,1.459,0,1.458-.005,2.907-.015,4.346-.01,1.439-.024,2.761-.044,3.967,.331,.661,.753,1.182,1.269,1.561,.515,.379,1.065,.569,1.648,.569,.914,0,1.628-.467,2.144-1.4,.515-.933,.773-2.226,.773-3.879,0-1.264-.151-2.396-.452-3.398-.302-1.001-.705-1.789-1.21-2.362-.506-.573-1.09-.861-1.75-.861Z"/><path d="M145.891,26.237c-.02-.642-.039-1.512-.058-2.611-.02-1.099-.034-2.363-.044-3.792-.01-1.429-.02-2.961-.029-4.594-.01-1.634-.015-3.306-.015-5.018,.876,0,1.794,.01,2.756,.029,.963,.02,1.716,.049,2.261,.088,0,1.42-.005,2.907-.015,4.462-.01,1.556-.02,3.068-.029,4.536-.01,1.469-.024,2.796-.044,3.982s-.039,2.12-.058,2.8c-.895,.04-1.75,.068-2.567,.088-.816,.019-1.536,.029-2.159,.029Zm-.117-18.289v-3.938h4.959v3.938h-4.959Z"/><path d="M162.927,26.31c-1.574,.067-3.003-.238-4.286-.913-1.284-.675-2.317-1.624-3.099-2.846-.782-1.222-1.207-2.63-1.274-4.223s.226-3.026,.883-4.3c.656-1.274,1.586-2.296,2.789-3.067s2.592-1.19,4.166-1.257c1.476-.063,2.816,.207,4.019,.808,1.203,.601,2.194,1.468,2.971,2.603,.778,1.135,1.268,2.486,1.471,4.054l-11.478,2.648c.422,1.247,1.049,2.247,1.879,3,.829,.753,1.74,1.109,2.731,1.067,.913-.039,1.803-.393,2.67-1.062,.867-.669,1.522-1.51,1.966-2.521l2.143,1.66c-.898,1.323-2.002,2.363-3.312,3.119s-2.724,1.167-4.239,1.231Zm-4.338-9.333l.012,.291,6.75-1.22c-.189-1.238-.63-2.222-1.322-2.951-.693-.73-1.515-1.074-2.467-1.034-.991,.042-1.75,.498-2.278,1.366-.528,.869-.759,2.052-.696,3.548Z"/><path d="M188.155,26.324c-1.225,0-2.329-.35-3.31-1.05-.982-.7-1.755-1.663-2.319-2.888-.564-1.225-.846-2.606-.846-4.142,0-1.594,.297-3.033,.89-4.317,.593-1.283,1.395-2.309,2.407-3.077,1.011-.768,2.129-1.152,3.354-1.152,1.108,0,2.275,.321,3.5,.963V4.098c.447,0,.977,.005,1.589,.014,.613,.01,1.23,.025,1.852,.044,.622,.02,1.148,.039,1.575,.059v3.544c0,1.371-.005,2.834-.015,4.39s-.02,3.097-.029,4.623-.02,2.951-.029,4.273-.02,2.44-.029,3.354c-.01,.914-.025,1.526-.044,1.838-.836,0-1.692-.015-2.567-.044-.876-.029-1.595-.053-2.159-.073,0-.252-.01-.613-.029-1.079-1.206,.856-2.47,1.284-3.792,1.284Zm-2.071-9.013c0,1.264,.151,2.397,.452,3.398,.301,1.002,.71,1.789,1.225,2.362,.516,.574,1.094,.861,1.736,.861,.875,0,1.682-.515,2.421-1.546-.02-1.147-.034-2.445-.043-3.894-.01-1.448-.015-2.921-.015-4.419-.331-.642-.744-1.142-1.24-1.502-.496-.359-1.035-.539-1.619-.539-.914,0-1.629,.462-2.144,1.386-.516,.924-.773,2.221-.773,3.894Z"/><path d="M213.19,21.628c-.506,0-1.026-.005-1.561-.015-.535-.01-1.084-.034-1.648-.073-.428,1.517-.856,3.102-1.284,4.755l-3.5-.233c1.089-3.675,2.304-7.384,3.646-11.128s2.771-7.385,4.288-10.924c.719-.077,1.522-.146,2.406-.204,.885-.058,1.794-.087,2.728-.087,1.185,2.878,2.45,6.204,3.792,9.976,1.342,3.773,2.722,7.837,4.142,12.192-1.128,.195-2.193,.34-3.194,.437-1.002,.097-2.018,.146-3.049,.146-.408-1.633-.865-3.354-1.371-5.163-1.731,.214-3.529,.321-5.396,.321Zm1.137-14.497c-.408,1.108-.919,2.645-1.531,4.609s-1.288,4.268-2.027,6.913c.777,.098,1.58,.165,2.406,.204,.826,.039,1.716,.059,2.669,.059,.35,0,.705-.005,1.065-.015s.696-.015,1.007-.015c-.428-1.556-.86-3.068-1.298-4.536-.437-1.468-.85-2.819-1.24-4.054-.389-1.235-.739-2.29-1.05-3.165Z"/><path d="M229.408,26.237c-.02-.642-.039-1.512-.058-2.611-.02-1.099-.034-2.363-.044-3.792-.01-1.429-.02-2.961-.029-4.594-.01-1.634-.015-3.306-.015-5.018,.876,0,1.794,.01,2.756,.029,.963,.02,1.716,.049,2.261,.088,0,1.42-.005,2.907-.015,4.462-.01,1.556-.02,3.068-.029,4.536-.01,1.469-.024,2.796-.044,3.982s-.039,2.12-.058,2.8c-.895,.04-1.75,.068-2.567,.088-.816,.019-1.536,.029-2.159,.029Zm-.117-18.289v-3.938h4.959v3.938h-4.959Z"/><path d="M253.821,26.295c-2.314,0-4.506-.01-6.578-.029-2.071-.02-3.879-.049-5.425-.087s-2.708-.077-3.486-.117l-.555-2.888c.681-.603,1.444-1.342,2.29-2.217,.846-.875,1.731-1.823,2.655-2.844,.923-1.021,1.823-2.046,2.698-3.077,.876-1.03,1.663-2.002,2.363-2.917-1.07,0-2.198,.024-3.384,.073-1.187,.049-2.319,.112-3.398,.189-1.079,.078-2.008,.156-2.786,.234l-.204-2.771c1.633,0,3.227,.005,4.783,.015s3.005,.029,4.346,.058c1.342,.029,2.518,.063,3.529,.102,1.011,.039,1.779,.078,2.304,.117l.613,2.83c-.876,1.05-1.882,2.217-3.019,3.5-1.138,1.283-2.315,2.576-3.529,3.879-1.216,1.303-2.387,2.528-3.515,3.675,1.808,0,3.617-.048,5.425-.146,1.808-.097,3.374-.214,4.696-.35l.175,2.771Z"/><path d="M263.89,26.44c-4.323,.339-6.794-3.436-7.413-11.326-.103-1.318-.156-2.738-.158-4.259,.462-.075,1.095-.154,1.898-.237,.803-.082,1.834-.173,3.094-.272,.036,1.948,.113,3.678,.231,5.19,.234,2.986,.644,5.163,1.229,6.531,.585,1.368,1.372,2.014,2.36,1.936,.659-.052,1.302-.375,1.928-.97,.627-.595,1.147-1.358,1.562-2.288-.14-1.53-.289-3.25-.449-5.158s-.318-3.871-.476-5.888c.795-.062,1.673-.121,2.634-.177,.961-.056,1.753-.089,2.377-.098,.123,1.57,.243,3.16,.36,4.77,.116,1.61,.227,3.152,.333,4.626,.105,1.474,.194,2.789,.265,3.944,.071,1.155,.122,2.053,.153,2.694-.753,.099-1.536,.189-2.348,.272-.813,.083-1.597,.155-2.353,.214-.056-.464-.123-1.063-.199-1.799-1.569,1.392-3.244,2.157-5.028,2.296Z"/></g><path d="M200.03,6.202c2.477-1.554,4.239-3.308,6.095-6.202,0,0,1.285,7.356-5.505,10.667-.174,.085-.389-.031-.408-.224-.088-.911-.301-3.131-.372-3.868-.015-.153,.06-.292,.19-.374Z" fill="#ffa72f"/></g><g><path d="M212.296,38.947c-.714-.901-1.606-1.622-2.488-2.163l.168-.327c.959,.146,2.208,.552,3.312,1.047l-.992,1.442Zm6.09-2.039c-.948,2.85-3.48,5.451-7.864,5.767l-.335-1.588c4.317-.226,6.626-1.78,7.73-4.438l.469,.259Zm-5.019-.045c-.759-.901-1.54-1.52-2.443-2.005l.145-.36c.937,.192,2.142,.575,3.223,1.003l-.925,1.363Zm3.859-.484c-.257-.721-.525-1.307-.837-1.724l.212-.18c.546,.338,1.049,.665,1.439,1.149l-.814,.755Zm1.104-.586c-.29-.642-.602-1.149-.959-1.543l.201-.203c.48,.248,.971,.496,1.461,.901l-.703,.845Z"/><path d="M228.649,42.461c-.881,.068-2.632,.146-3.937,.146-.29,0-.547,0-.781-.011-1.907-.09-2.276-1.262-2.276-2.647,0-.935,.112-4.539,.112-5.508h1.483c-.011,.496-.078,2.095-.123,3.492,1.606-.36,3.234-1.093,4.462-1.971l.669,1.465c-1.528,.484-3.245,.878-5.142,1.014-.022,.653-.034,1.216-.034,1.554,0,.777,.29,1.363,1.06,1.408,.189,.011,.39,.011,.602,.011,1.227,0,2.822-.102,3.904-.259v1.307Zm-.847-6.398c-.257-.732-.525-1.318-.837-1.724l.212-.191c.546,.349,1.037,.676,1.439,1.149l-.814,.766Zm1.037-.766c-.29-.642-.613-1.149-.97-1.543l.212-.203c.48,.247,.959,.495,1.461,.901l-.703,.845Z"/><path d="M231.127,41.605v-.518h4.038v-4.9h-2.699v-.518h7.127v.518h-2.755v4.9h4.082v.518h-9.793Z"/><path d="M248.239,37.82c-.123,2.072-1.417,4.404-4.439,5.079l-.246-.36c2.164-.912,2.878-2.68,2.978-4.719h-4.138v-.53h9.224v.53h-3.379Zm-4.395-2.647v-.53h5.945v.53h-5.945Zm6.392,.394c-.257-.721-.525-1.306-.837-1.723l.212-.18c.546,.338,1.048,.665,1.439,1.149l-.814,.754Zm1.104-.585c-.29-.642-.602-1.149-.959-1.543l.201-.203c.48,.248,.97,.496,1.461,.901l-.703,.845Z"/><path d="M257.51,42.787v-5.046c-1.171,.552-2.398,1.003-3.625,1.341l-.156-.383c2.666-.901,5.32-3.064,6.491-4.888l1.506,.969c-1.026,1.07-2.298,1.971-3.692,2.692h1.049v5.316h-1.573Z"/><path d="M272.235,42.754c-.747-1.092-1.695-2.23-2.878-3.098-1.316,1.385-2.733,2.377-4.919,3.109l-.246-.394c3.112-1.487,4.83-3.863,5.622-6.871h-4.005v-.473h5.778v.484c-.435,1.498-1.026,2.681-1.896,3.762,1.361,.575,2.532,1.183,3.703,1.971l-1.16,1.509Zm-.223-6.961c-.257-.732-.525-1.318-.837-1.724l.212-.191c.546,.338,1.048,.665,1.439,1.149l-.814,.766Zm1.104-.586c-.29-.653-.602-1.149-.959-1.554l.201-.191c.48,.236,.97,.484,1.461,.901l-.703,.844Z"/></g></g><g><path d="M89.666,10.398c-1.558-5.612-6.652-9.522-12.457-10.002C72.467,.004,64.903-.046,52.864,.881c-1.681,.129-3.38,.069-5.037-.241-1.594-.298-4.305-1.018-6.003,.497-1.272,1.135-1.42,3.384-1.171,7.303h-4.122c-.464,0-.917-.148-1.291-.422l-5.143-3.761c-2.693,.296-5.385,.187-8.078,.429l-.313,.696c-.177,.394-.462,.726-.829,.954-1.544,.959-6.121,3.6-11.887,5.075-7.066,1.808-7.356,10.391-.292,12.329,.97,.266,1.941,.544,2.865,.941,3.719,1.596,14.665,5.063,26.712-2.753,.34-.221,.737-.352,1.143-.363l2.421-.067c.21,2.732,.347,3.127,.299,5.742-.061,3.268,.37,6.527,1.416,9.624l1.083,3.206c.3,.889,1.134,1.487,2.073,1.487h6.556c.908,0,1.722-.561,2.045-1.41l4.406-7.927c.323-.849,1.137-1.41,2.045-1.41h6.598c.928,0,1.755,.586,2.064,1.461l1.217,7.825c.308,.875,1.135,1.461,2.064,1.461h8.658c.857,0,1.632-.5,1.99-1.279,2.09-4.54,8.644-17.892,5.315-29.878Z" fill="#ffa72f"/><path d="M4.754,14.168c-1.479,1.618-2.196,4.225-.1,6.896,1.829-3.127,1.279-5.095,.1-6.896Z" fill="#bc7a31"/><path d="M34.003,16.113c-.649-.029-1.233,.15-1.621,.462-1.969,1.585-8.709,4.006-13.025,4.715-1.247,.205-.695,1.53,.623,1.536,.017,0,.035,0,.052,0,3.393-.019,10.872-1.799,15.44-4.288,1.396-.76,.449-2.339-1.47-2.425h0Z" fill="#fff"/><path d="M58.255,7.423c2.702-.932,12.143-.851,17.83-.418,1.643,.125,1.037-1.198-.681-1.529l-.068-.013c-4.426-.823-14.327-1.081-20.495,.016-1.346,.239-1.229,.948-.143,1.534,.846,.457,1.852,.595,2.789,.493l.768-.083Z" fill="#fff"/><path d="M60.966,13.377c2.702-.932,12.143-.851,17.83-.418,1.643,.125,1.037-1.198-.681-1.529l-.068-.013c-4.426-.823-14.327-1.081-20.495,.016-1.346,.239-1.229,.948-.143,1.534,.846,.457,1.852,.595,2.789,.493l.768-.083Z" fill="#fff"/><path d="M63.675,19.301c2.702-.932,12.143-.851,17.83-.418,1.643,.125,1.037-1.198-.681-1.529l-.068-.013c-4.426-.823-14.327-1.081-20.495,.016-1.346,.239-1.229,.948-.143,1.534,.846,.457,1.852,.595,2.789,.493l.768-.083Z" fill="#fff"/><path d="M40.713,3.474c-.676,2.435,.889,19.483,1.387,22.607,0,0,4.626-.596,4.523-4.057-.135-4.555,1.651-21.312-1.013-21.764-4.649-.788-4.738,2.49-4.897,3.214Z" fill="#212121"/><path d="M29.465,3.795l-.256-.219-2.872-2.872c-.842-.842-2.266-.581-2.755,.505l-1.878,4.173c2.693-.242,5.699-.829,8.391-1.125l-.631-.461Z" fill="#212121"/><circle cx="15.508" cy="16.582" r="2.706" fill="#231815" stroke="#fff" stroke-miterlimit="10"/><path d="M7.702,19.676c-1.608,2.435-3.743,4.391-6.33,5.935,0,0,7.308,1.455,10.77-5.242,.089-.171-.022-.389-.214-.412-.907-.109-3.117-.374-3.85-.462-.152-.018-.293,.053-.377,.181Z" fill="#fff" stroke="#ffa72f" stroke-miterlimit="10"/></g></g></g></svg>