<svg xmlns="http://www.w3.org/2000/svg" width="169.718" height="21.654" viewBox="0 0 169.718 21.654">
  <path id="logo" d="M8.159.218C12.721.273,15.4-2.375,15.388-7.7L15.363-20.48H10.787V-7.537c0,2.395-.731,3.635-2.883,3.635C6.5-3.9,5.348-4.857,4.863-6.621L.64-5.574C1.506-1.9,4.33.173,8.159.218ZM20.576,0h4.5V-20.48h-4.5Zm10.08,0H41.212c4.6,0,7.038-1.908,7.038-5.7,0-3.57-2.083-4.85-3.433-5.328a4.236,4.236,0,0,0,2.376-4.141c0-3.412-2.6-5.307-7.05-5.307H30.656ZM35-12.805V-16.4h5.012c1.783,0,2.751.542,2.751,1.779,0,1.191-1.019,1.815-2.708,1.815ZM35-4.09V-8.842h6.057c1.784,0,2.821.826,2.8,2.39,0,1.61-1.013,2.362-2.8,2.362ZM52.48,0h4.5V-20.48h-4.5ZM62.56,0H78.748V-4.09H67.033V-8.842h8.207V-12.8l-8.207-.02V-16.4H78.722V-20.48H62.56ZM91.072,0h6.964c7.357,0,11.959-4.233,11.959-10.208s-4.6-10.347-11.959-10.308l-6.964.036Zm4.473-4.081V-16.469l2.479.021c5.17.045,7.48,2.477,7.48,6.248s-2.309,6.091-7.48,6.109ZM110.3,0h4.913l2.062-3.862h9.774L129.127,0h4.82L122.2-21.365Zm8.96-7.58,2.887-5.407,2.9,5.407ZM139.056-.026h4.48v-8.3L152.16-20.48h-5.332L141.3-12.519l-5.532-7.961h-5.332l8.624,12.155Zm22.829.314c5.078-.006,8.48-2.587,8.473-6.129-.007-3.25-1.826-5.119-6.22-6.079l-2.8-.611c-2.026-.443-2.9-1-2.911-2.157-.008-1.307,1.48-2.03,3.591-2.023a10.636,10.636,0,0,1,5.421,1.632l2.26-3.479a16.139,16.139,0,0,0-8.111-2.2c-4.508.007-7.981,2.53-7.974,5.936.007,3.1,1.846,5.183,6.423,6.194l2.54.561c2.424.535,3.2.987,3.125,2.225-.079,1.292-1.442,2.073-3.623,2.077a13.946,13.946,0,0,1-6.868-1.856L152.8-2.131a18.006,18.006,0,0,0,9.085,2.42Z" transform="translate(-0.64 21.365)" fill="#ffa72f"/>
</svg>
