<svg xmlns="http://www.w3.org/2000/svg" width="15.643" height="14.861" viewBox="0 0 15.643 14.861">
  <path id="pets_FILL0_wght400_GRAD0_opsz48" d="M5.76,13.094a1.77,1.77,0,0,1-1.251-3.011A1.7,1.7,0,0,1,5.76,9.574a1.77,1.77,0,0,1,1.251,3.011A1.7,1.7,0,0,1,5.76,13.094ZM9.377,9.77a1.736,1.736,0,0,1-1.76-1.76,1.736,1.736,0,0,1,1.76-1.76,1.736,1.736,0,0,1,1.76,1.76,1.736,1.736,0,0,1-1.76,1.76Zm4.888,0a1.736,1.736,0,0,1-1.76-1.76,1.76,1.76,0,1,1,3.011,1.251A1.7,1.7,0,0,1,14.266,9.77Zm3.617,3.324a1.736,1.736,0,0,1-1.76-1.76,1.731,1.731,0,0,1,.508-1.222,1.654,1.654,0,0,1,1.251-.538,1.77,1.77,0,0,1,1.251,3.011A1.7,1.7,0,0,1,17.883,13.094ZM7.637,21.111a1.7,1.7,0,0,1-1.349-.616,2.166,2.166,0,0,1-.528-1.457,2.3,2.3,0,0,1,.5-1.457,15.715,15.715,0,0,1,1.066-1.222,9.635,9.635,0,0,0,.8-.909q.372-.479.7-.987a11.642,11.642,0,0,1,1.271-1.6,2.28,2.28,0,0,1,1.721-.743,2.311,2.311,0,0,1,1.731.743,10.715,10.715,0,0,1,1.281,1.623q.332.508.694.978a9.31,9.31,0,0,0,.792.9,15.714,15.714,0,0,1,1.066,1.222,2.3,2.3,0,0,1,.5,1.457,2.167,2.167,0,0,1-.528,1.457,1.7,1.7,0,0,1-1.349.616,12.475,12.475,0,0,1-2.092-.176,12.525,12.525,0,0,0-4.185,0A12.475,12.475,0,0,1,7.637,21.111Z" transform="translate(-4 -6.25)" fill="#212121"/>
</svg>
