<svg xmlns="http://www.w3.org/2000/svg" width="16" height="16" viewBox="0 0 16 16">
  <path id="play_circle_FILL0_wght400_GRAD0_opsz48" d="M10.06,15.4,15.4,12,10.06,8.6ZM12,20a7.741,7.741,0,0,1-3.1-.63A8.06,8.06,0,0,1,4.63,15.1a7.942,7.942,0,0,1,0-6.2A8.06,8.06,0,0,1,8.9,4.63a7.942,7.942,0,0,1,6.2,0A8.06,8.06,0,0,1,19.37,8.9a7.942,7.942,0,0,1,0,6.2,8.06,8.06,0,0,1-4.27,4.27A7.741,7.741,0,0,1,12,20Zm0-8Zm0,6.8a6.546,6.546,0,0,0,4.8-2,6.546,6.546,0,0,0,2-4.8,6.546,6.546,0,0,0-2-4.8,6.546,6.546,0,0,0-4.8-2,6.546,6.546,0,0,0-4.8,2,6.546,6.546,0,0,0-2,4.8,6.546,6.546,0,0,0,2,4.8A6.546,6.546,0,0,0,12,18.8Z" transform="translate(-4 -4)" fill="#fff"/>
</svg>
